{
  "accessors": [
    {
      "bufferView": 1,
      "componentType": 5126,
      "count": 1205,
      "max": [
        0.04105140641331673,
        0.04104355722665787,
        0.037899959832429886
      ],
      "min": [
        -0.04105140641331673,
        -0.04104355722665787,
        0.033396609127521515
      ],
      "type": "VEC3"
    },
    {
      "bufferView": 1,
      "byteOffset": 14460,
      "componentType": 5126,
      "count": 1205,
      "max": [
        1.0,
        1.0,
        1.0
      ],
      "min": [
        -0.9000383019447327,
        -0.9610713720321655,
        -1.0
      ],
      "type": "VEC3"
    },
    {
      "bufferView": 0,
      "componentType": 5125,
      "count": 1734,
      "type": "SCALAR"
    },
    {
      "bufferView": 1,
      "byteOffset": 28920,
      "componentType": 5126,
      "count": 6389,
      "max": [
        0.20995169878005981,
        0.20981648564338684,
        0.13490372896194458
      ],
      "min": [
        -0.20995332300662994,
        -0.20972703397274017,
        -0.00010224440484307706
      ],
      "type": "VEC3"
    },
    {
      "bufferView": 1,
      "byteOffset": 105588,
      "componentType": 5126,
      "count": 6389,
      "max": [
        0.9980162382125854,
        1.0,
        1.0
      ],
      "min": [
        -0.9999439120292664,
        -1.0,
        -1.0
      ],
      "type": "VEC3"
    },
    {
      "bufferView": 0,
      "byteOffset": 6936,
      "componentType": 5125,
      "count": 7242,
      "type": "SCALAR"
    }
  ],
  "asset": {
    "extras": {
      "author": "usbathstore (https://sketchfab.com/usbathstore)",
      "license": "CC-BY-4.0 (http://creativecommons.org/licenses/by/4.0/)",
      "source": "https://sketchfab.com/3d-models/laufen-kartell-17-ceramic-bowl-bathroom-sink-2e45dbf71e0d45f9b0a53f27a5b2e48d",
      "title": "Laufen Kartell 17\" Ceramic Bowl Bathroom Sink"
    },
    "generator": "Sketchfab-14.64.0",
    "version": "2.0"
  },
  "bufferViews": [
    {
      "buffer": 0,
      "byteLength": 35904,
      "name": "floatBufferViews",
      "target": 34963
    },
    {
      "buffer": 0,
      "byteLength": 182256,
      "byteOffset": 35904,
      "byteStride": 12,
      "name": "floatBufferViews",
      "target": 34962
    }
  ],
  "buffers": [
    {
      "byteLength": 218160,
      "uri": "scene.bin"
    }
  ],
  "materials": [
    {
      "doubleSided": true,
      "name": "material",
      "pbrMetallicRoughness": {
        "baseColorFactor": [
          0.411765,
          0.411765,
          0.411765,
          1.0
        ],
        "metallicFactor": 0.0,
        "roughnessFactor": 0.6
      }
    },
    {
      "doubleSided": true,
      "name": "material_1",
      "pbrMetallicRoughness": {
        "baseColorFactor": [
          0.972549,
          0.972549,
          0.972549,
          1.0
        ],
        "metallicFactor": 0.0,
        "roughnessFactor": 0.6
      }
    }
  ],
  "meshes": [
    {
      "name": "Object_0",
      "primitives": [
        {
          "attributes": {
            "NORMAL": 1,
            "POSITION": 0
          },
          "indices": 2,
          "material": 0,
          "mode": 4
        }
      ]
    },
    {
      "name": "Object_1",
      "primitives": [
        {
          "attributes": {
            "NORMAL": 4,
            "POSITION": 3
          },
          "indices": 5,
          "material": 1,
          "mode": 4
        }
      ]
    }
  ],
  "nodes": [
    {
      "children": [
        1
      ],
      "matrix": [
        1.0,
        0.0,
        0.0,
        0.0,
        0.0,
        2.220446049250313e-16,
        -1.0,
        0.0,
        0.0,
        1.0,
        2.220446049250313e-16,
        0.0,
        0.0,
        0.0,
        0.0,
        1.0
      ],
      "name": "Sketchfab_model"
    },
    {
      "children": [
        2,
        3
      ],
      "name": "93ca2ffc67c14301a8532f71123b9b4b.3ds"
    },
    {
      "mesh": 0,
      "name": "Object_2"
    },
    {
      "mesh": 1,
      "name": "Object_3"
    }
  ],
  "scene": 0,
  "scenes": [
    {
      "name": "Sketchfab_Scene",
      "nodes": [
        0
      ]
    }
  ]
}
