{
  "accessors": [
    {
      "bufferView": 2,
      "componentType": 5126,
      "count": 64,
      "max": [
        0.223597452044487,
        -2.9284815788269043,
        0.037360358983278275
      ],
      "min": [
        0.20113687217235565,
        -2.9996213912963867,
        0.007288624532520771
      ],
      "type": "VEC3"
    },
    {
      "bufferView": 2,
      "byteOffset": 768,
      "componentType": 5126,
      "count": 64,
      "max": [
        0.9615935683250427,
        0.9201688766479492,
        1.0
      ],
      "min": [
        -0.96159428358078,
        -0.9201692342758179,
        -1.0
      ],
      "type": "VEC3"
    },
    {
      "bufferView": 1,
      "componentType": 5126,
      "count": 64,
      "max": [
        0.0,
        0.0
      ],
      "min": [
        0.0,
        0.0
      ],
      "type": "VEC2"
    },
    {
      "bufferView": 0,
      "componentType": 5125,
      "count": 168,
      "type": "SCALAR"
    },
    {
      "bufferView": 2,
      "byteOffset": 1536,
      "componentType": 5126,
      "count": 64,
      "max": [
        0.223597452044487,
        -2.9284815788269043,
        -0.007288672961294651
      ],
      "min": [
        0.20113687217235565,
        -2.9996213912963867,
        -0.03736041113734245
      ],
      "type": "VEC3"
    },
    {
      "bufferView": 2,
      "byteOffset": 2304,
      "componentType": 5126,
      "count": 64,
      "max": [
        0.9615938663482666,
        0.9201691746711731,
        1.0
      ],
      "min": [
        -0.9615939259529114,
        -0.9201697111129761,
        -1.0
      ],
      "type": "VEC3"
    },
    {
      "bufferView": 1,
      "byteOffset": 512,
      "componentType": 5126,
      "count": 64,
      "max": [
        0.0,
        0.0
      ],
      "min": [
        0.0,
        0.0
      ],
      "type": "VEC2"
    },
    {
      "bufferView": 0,
      "byteOffset": 672,
      "componentType": 5125,
      "count": 168,
      "type": "SCALAR"
    },
    {
      "bufferView": 2,
      "byteOffset": 3072,
      "componentType": 5126,
      "count": 9935,
      "max": [
        1.9725744724273682,
        -4.76837158203125e-07,
        0.3829251229763031
      ],
      "min": [
        -0.38292378187179565,
        -3.469068765640259,
        -0.38292232155799866
      ],
      "type": "VEC3"
    },
    {
      "bufferView": 2,
      "byteOffset": 122292,
      "componentType": 5126,
      "count": 9935,
      "max": [
        1.0,
        1.0,
        1.0
      ],
      "min": [
        -1.0,
        -1.0,
        -1.0
      ],
      "type": "VEC3"
    },
    {
      "bufferView": 1,
      "byteOffset": 1024,
      "componentType": 5126,
      "count": 9935,
      "max": [
        1.0,
        1.0
      ],
      "min": [
        0.0,
        0.0
      ],
      "type": "VEC2"
    },
    {
      "bufferView": 0,
      "byteOffset": 1344,
      "componentType": 5125,
      "count": 22722,
      "type": "SCALAR"
    },
    {
      "bufferView": 2,
      "byteOffset": 241512,
      "componentType": 5126,
      "count": 254,
      "max": [
        0.17326350510120392,
        -2.717029333114624,
        0.1949182152748108
      ],
      "min": [
        -0.20026995241641998,
        -2.8794662952423096,
        -0.19492007791996002
      ],
      "type": "VEC3"
    },
    {
      "bufferView": 2,
      "byteOffset": 244560,
      "componentType": 5126,
      "count": 254,
      "max": [
        0.9569404125213623,
        1.0,
        0.956583559513092
      ],
      "min": [
        -0.8819188475608826,
        0.28899961709976196,
        -0.9565831422805786
      ],
      "type": "VEC3"
    },
    {
      "bufferView": 1,
      "byteOffset": 80504,
      "componentType": 5126,
      "count": 254,
      "max": [
        1.0,
        1.0
      ],
      "min": [
        0.0,
        0.5666564702987671
      ],
      "type": "VEC2"
    },
    {
      "bufferView": 0,
      "byteOffset": 92232,
      "componentType": 5125,
      "count": 1182,
      "type": "SCALAR"
    }
  ],
  "asset": {
    "extras": {
      "author": "Deltahedra (https://sketchfab.com/deltahedra)",
      "license": "CC-BY-4.0 (http://creativecommons.org/licenses/by/4.0/)",
      "source": "https://sketchfab.com/3d-models/free-3d-model-square-bathroom-faucet-a5c372a83f4f448e829fd2e4487ad75b",
      "title": "Free 3d Model Square bathroom faucet"
    },
    "generator": "Sketchfab-16.8.0",
    "version": "2.0"
  },
  "bufferViews": [
    {
      "buffer": 0,
      "byteLength": 96960,
      "name": "floatBufferViews",
      "target": 34963
    },
    {
      "buffer": 0,
      "byteLength": 82536,
      "byteOffset": 96960,
      "byteStride": 8,
      "name": "floatBufferViews",
      "target": 34962
    },
    {
      "buffer": 0,
      "byteLength": 247608,
      "byteOffset": 179496,
      "byteStride": 12,
      "name": "floatBufferViews",
      "target": 34962
    }
  ],
  "buffers": [
    {
      "byteLength": 427104,
      "uri": "scene.bin"
    }
  ],
  "materials": [
    {
      "doubleSided": true,
      "name": "Material.003",
      "pbrMetallicRoughness": {
        "baseColorFactor": [
          0.0155165,
          0.228104,
          0.801181,
          1.0
        ],
        "metallicFactor": 0.0,
        "roughnessFactor": 0.5
      }
    },
    {
      "doubleSided": true,
      "name": "Material.004",
      "pbrMetallicRoughness": {
        "baseColorFactor": [
          0.38447299999999984,
          0.005063930000000003,
          0.0,
          1.0
        ],
        "metallicFactor": 0.0,
        "roughnessFactor": 0.5
      }
    },
    {
      "doubleSided": true,
      "name": "Metal_Polished",
      "pbrMetallicRoughness": {
        "baseColorFactor": [
          0.256265,
          0.256265,
          0.256265,
          1.0
        ],
        "roughnessFactor": 0.0681818
      }
    }
  ],
  "meshes": [
    {
      "name": "Object_0",
      "primitives": [
        {
          "attributes": {
            "NORMAL": 1,
            "POSITION": 0,
            "TEXCOORD_0": 2
          },
          "indices": 3,
          "material": 0,
          "mode": 4
        }
      ]
    },
    {
      "name": "Object_1",
      "primitives": [
        {
          "attributes": {
            "NORMAL": 5,
            "POSITION": 4,
            "TEXCOORD_0": 6
          },
          "indices": 7,
          "material": 1,
          "mode": 4
        }
      ]
    },
    {
      "name": "Object_2",
      "primitives": [
        {
          "attributes": {
            "NORMAL": 9,
            "POSITION": 8,
            "TEXCOORD_0": 10
          },
          "indices": 11,
          "material": 2,
          "mode": 4
        }
      ]
    },
    {
      "name": "Object_3",
      "primitives": [
        {
          "attributes": {
            "NORMAL": 13,
            "POSITION": 12,
            "TEXCOORD_0": 14
          },
          "indices": 15,
          "material": 2,
          "mode": 4
        }
      ]
    }
  ],
  "nodes": [
    {
      "children": [
        1
      ],
      "matrix": [
        1.0,
        0.0,
        0.0,
        0.0,
        0.0,
        2.220446049250313e-16,
        -1.0,
        0.0,
        0.0,
        1.0,
        2.220446049250313e-16,
        0.0,
        0.0,
        0.0,
        0.0,
        1.0
      ],
      "name": "Sketchfab_model"
    },
    {
      "children": [
        2
      ],
      "name": "root"
    },
    {
      "children": [
        3
      ],
      "matrix": [
        1.0,
        0.0,
        0.0,
        0.0,
        0.0,
        2.220446049250313e-16,
        1.0,
        0.0,
        0.0,
        -1.0,
        2.220446049250313e-16,
        0.0,
        0.0,
        0.0,
        0.0,
        1.0
      ],
      "name": "GLTF_SceneRootNode"
    },
    {
      "children": [
        4
      ],
      "name": "Master_kitchen_tap_009_2"
    },
    {
      "children": [
        5,
        6,
        7,
        8
      ],
      "matrix": [
        0.08466287702322006,
        0.0,
        -0.0,
        0.0,
        -0.0,
        -0.08466287702321364,
        -3.2968940699851175e-08,
        0.0,
        0.0,
        3.2968940699851175e-08,
        -0.08466287702321364,
        0.0,
        0.0,
        0.0,
        0.0,
        1.0
      ],
      "name": "Robinet_1"
    },
    {
      "mesh": 0,
      "name": "Object_5"
    },
    {
      "mesh": 1,
      "name": "Object_6"
    },
    {
      "mesh": 2,
      "name": "Object_7"
    },
    {
      "mesh": 3,
      "name": "Object_8"
    }
  ],
  "scene": 0,
  "scenes": [
    {
      "name": "Sketchfab_Scene",
      "nodes": [
        0
      ]
    }
  ]
}
